<svg width="22" height="20" viewBox="0 0 22 20" fill="none" xmlns="http://www.w3.org/2000/svg">
<path fill-rule="evenodd" clip-rule="evenodd" d="M4.88803 17.4932L2.97249 6H1C0.447715 6 0 5.55228 0 5C0 4.44772 0.447715 4 1 4H2.63916H5.76416L6.93498 1.65836C7.44316 0.642008 8.48195 0 9.61826 0H12.3822C13.5185 0 14.5573 0.642006 15.0655 1.65836L16.2363 4H19.361H21C21.5523 4 22 4.44772 22 5C22 5.55228 21.5523 6 21 6H19.0277L17.1121 17.4932C16.871 18.9398 15.6195 20 14.153 20H7.84721C6.38069 20 5.12912 18.9398 4.88803 17.4932ZM17.0001 6H5.00008L6.86081 17.1644C6.94118 17.6466 7.35837 18 7.84721 18H14.153C14.6418 18 15.059 17.6466 15.1393 17.1644L17.0001 6ZM14.0002 4L13.2766 2.55279C13.1072 2.214 12.761 2 12.3822 2H9.61826C9.23949 2 8.89323 2.214 8.72383 2.55279L8.00023 4H14.0002ZM9 15C8.44771 15 8 14.5523 8 14V10C8 9.44772 8.44771 9 9 9C9.55229 9 10 9.44772 10 10V14C10 14.5523 9.55229 15 9 15ZM12 14C12 14.5523 12.4477 15 13 15C13.5523 15 14 14.5523 14 14V10C14 9.44772 13.5523 9 13 9C12.4477 9 12 9.44772 12 10V14Z" fill="white"/>
</svg>
