<svg width="22" height="20" viewBox="0 0 22 20" fill="none" xmlns="http://www.w3.org/2000/svg">
<path fill-rule="evenodd" clip-rule="evenodd" d="M6 3.5V1.5C6 0.947715 5.55228 0.5 5 0.5C4.44772 0.5 4 0.947715 4 1.5V3.5C1.79086 3.5 0 5.29086 0 7.5V15.5C0 17.7091 1.79086 19.5 4 19.5H18C20.2091 19.5 22 17.7091 22 15.5V7.5C22 5.29086 20.2091 3.5 18 3.5V1.5C18 0.947715 17.5523 0.5 17 0.5C16.4477 0.5 16 0.947715 16 1.5V3.5H6ZM7.3001 9.2375C7.3001 9.95547 6.71807 10.5375 6.0001 10.5375C5.28213 10.5375 4.7001 9.95547 4.7001 9.2375C4.7001 8.51953 5.28213 7.9375 6.0001 7.9375C6.71807 7.9375 7.3001 8.51953 7.3001 9.2375ZM10.9998 10.5375C11.7178 10.5375 12.2998 9.95547 12.2998 9.2375C12.2998 8.51953 11.7178 7.9375 10.9998 7.9375C10.2818 7.9375 9.6998 8.51953 9.6998 9.2375C9.6998 9.95547 10.2818 10.5375 10.9998 10.5375ZM17.2991 9.2375C17.2991 9.95547 16.7171 10.5375 15.9991 10.5375C15.2812 10.5375 14.6991 9.95547 14.6991 9.2375C14.6991 8.51953 15.2812 7.9375 15.9991 7.9375C16.7171 7.9375 17.2991 8.51953 17.2991 9.2375ZM6.0001 15.1313C6.71807 15.1313 7.3001 14.5492 7.3001 13.8313C7.3001 13.1133 6.71807 12.5312 6.0001 12.5312C5.28213 12.5312 4.7001 13.1133 4.7001 13.8313C4.7001 14.5492 5.28213 15.1313 6.0001 15.1313ZM12.3002 13.8313C12.3002 14.5492 11.7182 15.1313 11.0002 15.1313C10.2822 15.1313 9.7002 14.5492 9.7002 13.8313C9.7002 13.1133 10.2822 12.5312 11.0002 12.5312C11.7182 12.5312 12.3002 13.1133 12.3002 13.8313ZM15.9991 15.1313C16.7171 15.1313 17.2991 14.5492 17.2991 13.8313C17.2991 13.1133 16.7171 12.5312 15.9991 12.5312C15.2812 12.5312 14.6991 13.1133 14.6991 13.8313C14.6991 14.5492 15.2812 15.1313 15.9991 15.1313Z" fill="#4CAF50"/>
</svg>