<svg width="20" height="20" viewBox="0 0 20 20" fill="none" xmlns="http://www.w3.org/2000/svg">
<path fill-rule="evenodd" clip-rule="evenodd" d="M0 10C0 4.47715 4.47715 0 10 0C15.5228 0 20 4.47715 20 10C20 15.5228 15.5228 20 10 20C4.47715 20 0 15.5228 0 10ZM14.2071 14.2061C13.8166 14.5967 13.1834 14.5967 12.7929 14.2061L10.0006 11.4138L7.20726 14.2071C6.81673 14.5977 6.18357 14.5977 5.79304 14.2071C5.40252 13.8166 5.40252 13.1834 5.79304 12.7929L8.58636 9.9996L5.79289 7.20613C5.40237 6.81561 5.40237 6.18244 5.79289 5.79192C6.18342 5.40139 6.81658 5.40139 7.20711 5.79192L10.0006 8.58539L12.793 5.79292C13.1836 5.4024 13.8167 5.4024 14.2073 5.79292C14.5978 6.18345 14.5978 6.81661 14.2073 7.20714L11.4148 9.9996L14.2071 12.7919C14.5976 13.1824 14.5976 13.8156 14.2071 14.2061Z" fill="#252849"/>
</svg>
