<svg width="12" height="12" viewBox="0 0 12 12" fill="none" xmlns="http://www.w3.org/2000/svg">
<path fill-rule="evenodd" clip-rule="evenodd" d="M1.00745 1.0072C1.398 0.616703 2.03117 0.616746 2.42166 1.0073L6.00002 4.58614L9.57838 1.0073C9.96888 0.616746 10.602 0.616703 10.9926 1.0072C11.3831 1.3977 11.3832 2.03086 10.9927 2.42141L7.41414 6.00045L10.9923 9.57914C11.3828 9.96969 11.3828 10.6029 10.9922 10.9934C10.6017 11.3838 9.96853 11.3838 9.57803 10.9933L6.00002 7.41476L2.42202 10.9933C2.03152 11.3838 1.39835 11.3838 1.0078 10.9934C0.617253 10.6029 0.61721 9.96969 1.00771 9.57914L4.58591 6.00045L1.00735 2.42141C0.616855 2.03086 0.616899 1.3977 1.00745 1.0072Z" fill="#7C7E92" fill-opacity="0.56"/>
</svg>
