<svg width="65" height="64" viewBox="0 0 65 64" fill="none" xmlns="http://www.w3.org/2000/svg">
<path fill-rule="evenodd" clip-rule="evenodd" d="M18.9365 18.6862C19.9779 17.6449 21.6664 17.645 22.7077 18.6865L32.25 28.23L41.7923 18.6865C42.8336 17.645 44.522 17.6449 45.5635 18.6862C46.605 19.7275 46.6051 21.416 45.5638 22.4574L36.021 32.0015L45.5628 41.5447C46.6041 42.5862 46.604 44.2746 45.5626 45.3159C44.5211 46.3573 42.8327 46.3571 41.7913 45.3157L32.25 35.773L22.7086 45.3157C21.6673 46.3571 19.9789 46.3573 18.9374 45.3159C17.8959 44.2746 17.8958 42.5862 18.9371 41.5447L28.479 32.0015L18.9362 22.4574C17.8949 21.416 17.895 19.7275 18.9365 18.6862Z" fill="#7C7E92" fill-opacity="0.56"/>
<circle cx="32.25" cy="32" r="29.335" stroke="#7C7E92" stroke-opacity="0.56" stroke-width="5.33"/>
</svg>