<svg width="24" height="24" viewBox="0 0 24 24" fill="none" xmlns="http://www.w3.org/2000/svg">
<path fill-rule="evenodd" clip-rule="evenodd" d="M12.8878 20.5129C12.3353 20.8311 11.6649 20.8291 11.1141 20.5081C9.12818 19.3505 4.35894 16.2518 2.63208 12.3044C1.57002 9.89998 1.68266 5.99686 4.24127 4.21822C5.38313 3.29398 6.83553 2.86886 8.28222 3.03543C9.72891 3.20199 11.0872 3.83922 11.9999 5C12.9125 3.83922 14.2018 3.20199 15.6485 3.03543C17.0952 2.86886 18.5476 3.29398 19.6895 4.21822C22.3125 5.99686 22.4251 9.88351 21.3952 12.3044C19.7165 16.2573 14.8907 19.3591 12.8878 20.5129Z" stroke="#3B3E5B" stroke-width="2" stroke-linecap="round" stroke-linejoin="round"/>
<path d="M18 7.00024C18.9345 7.65802 19.3391 9.62403 18.6648 11.0002" stroke="#3B3E5B" stroke-width="2" stroke-linecap="round" stroke-linejoin="round"/>
</svg>
