<svg width="22" height="20" viewBox="0 0 22 20" fill="none" xmlns="http://www.w3.org/2000/svg">
<path fill-rule="evenodd" clip-rule="evenodd" d="M2.64038 1.4182C3.98466 0.342392 5.69244 -0.154222 7.39662 0.0419889C8.69438 0.191408 9.97086 0.676978 10.9957 1.55689C11.9952 0.683074 13.2253 0.192687 14.5342 0.0419889C16.2364 -0.154001 17.9423 0.341273 19.2859 1.41456C20.8661 2.50306 21.6463 4.19403 21.9009 5.87031C22.1562 7.55155 21.9025 9.31589 21.3154 10.6959C20.3871 12.8814 18.6251 14.766 16.91 16.2209C15.1809 17.6876 13.4179 18.7855 12.3869 19.3794C11.5236 19.8767 10.4707 19.8734 9.61051 19.372C8.58818 18.7761 6.84468 17.6783 5.12702 16.2133C3.42261 14.7595 1.66828 12.8812 0.716617 10.7068C0.10903 9.3303 -0.152196 7.56462 0.089094 5.88449C0.329695 4.20915 1.0901 2.51083 2.64038 1.4182ZM17.5756 4.18251C17.124 3.86462 16.5001 3.97304 16.1823 4.42467C15.8644 4.87629 15.9728 5.50011 16.4244 5.81799C16.5929 5.9366 16.8424 6.29932 16.9514 6.90727C17.0554 7.48779 16.9923 8.09994 16.7668 8.56027C16.5238 9.05623 16.7288 9.65527 17.2248 9.89826C17.7208 10.1413 18.3198 9.93619 18.5628 9.44023C19.0115 8.52435 19.0833 7.46539 18.92 6.55441C18.7616 5.67085 18.3416 4.72167 17.5756 4.18251Z" fill="#252849"/>
</svg>
