<svg width="18" height="20" viewBox="0 0 18 20" fill="none" xmlns="http://www.w3.org/2000/svg">
<path fill-rule="evenodd" clip-rule="evenodd" d="M3 20H15C16.6569 20 18 18.6569 18 17V6.41423C18 5.61858 17.6839 4.85552 17.1213 4.29291L13.7071 0.878695C13.1445 0.316087 12.3814 1.52588e-05 11.5858 1.52588e-05H3C1.34315 1.52588e-05 0 1.34316 0 3.00002V17C0 18.6569 1.34315 20 3 20ZM2 3.00002C2 2.44773 2.44772 2.00002 3 2.00002H10V6.60002C10 7.37321 10.6268 8.00002 11.4 8.00002H16V17C16 17.5523 15.5523 18 15 18H3C2.44772 18 2 17.5523 2 17V3.00002ZM15.9102 6.00002C15.861 5.89203 15.7926 5.79263 15.7071 5.70712L12.2929 2.29291C12.2074 2.2074 12.108 2.13898 12 2.08983V6.00002H15.9102Z" fill="#7C7E92"/>
</svg>
