<svg width="33" height="32" viewBox="0 0 33 32" fill="none" xmlns="http://www.w3.org/2000/svg">
<path fill-rule="evenodd" clip-rule="evenodd" d="M5.5 4C6.05228 4 6.5 4.44772 6.5 5V7.375H11.1492L11.4231 7.15587C12.8641 6.00306 14.6546 5.375 16.5 5.375C18.3454 5.375 20.1359 6.00306 21.5769 7.15587L21.8508 7.375H26.5V5C26.5 4.44772 26.9477 4 27.5 4C28.0523 4 28.5 4.44772 28.5 5V7.375V9.625V16.7292C29.1224 17.4343 29.5 18.3606 29.5 19.375V19.384C30.6213 19.485 31.5 20.4274 31.5 21.575V24.175C31.5 25.39 30.515 26.375 29.3 26.375H27.5V27C27.5 27.5523 27.0523 28 26.5 28C25.9477 28 25.5 27.5523 25.5 27V26.375H7.5V27C7.5 27.5523 7.05228 28 6.5 28C5.94772 28 5.5 27.5523 5.5 27V26.375H3.7C2.48499 26.375 1.5 25.39 1.5 24.175V21.575C1.5 20.4274 2.3787 19.485 3.5 19.384V19.375C3.5 18.3606 3.87764 17.4343 4.5 16.7292V9.625V7.375V5C4.5 4.44772 4.94772 4 5.5 4ZM26.5 9.625V9.375H21.1492L20.3275 8.71761C19.2411 7.8485 17.8913 7.375 16.5 7.375C15.1087 7.375 13.7589 7.8485 12.6725 8.71761L11.8508 9.375H6.5V9.625V15.375H7.5H7.95196C8.36379 14.2098 9.47503 13.375 10.7812 13.375H12.7812C14.0875 13.375 15.1987 14.2098 15.6105 15.375H17.3895C17.8013 14.2098 18.9125 13.375 20.2188 13.375H22.2188C23.525 13.375 24.6362 14.2098 25.048 15.375H25.5H26.5V9.625ZM29.3 24.375H26.5H6.5H3.7C3.58954 24.375 3.5 24.2855 3.5 24.175V21.575C3.5 21.4645 3.58954 21.375 3.7 21.375H29.3C29.4105 21.375 29.5 21.4645 29.5 21.575V24.175C29.5 24.2855 29.4105 24.375 29.3 24.375ZM27.5 19.375C27.5 18.2704 26.6046 17.375 25.5 17.375H24.2188H18.2188H14.7812H8.78125H7.5C6.39543 17.375 5.5 18.2704 5.5 19.375H27.5Z" fill="#4CAF50"/>
</svg>
