<svg width="20" height="22" viewBox="0 0 20 22" fill="none" xmlns="http://www.w3.org/2000/svg">
<path fill-rule="evenodd" clip-rule="evenodd" d="M4 0H16C18.2091 0 20 1.79086 20 4V18C20 20.2091 18.2091 22 16 22H4C1.79086 22 0 20.2091 0 18V4C0 1.79086 1.79086 0 4 0ZM4 2C2.89543 2 2 2.89543 2 4V18C2 19.1046 2.89543 20 4 20H16C17.1046 20 18 19.1046 18 18V4C18 2.89543 17.1046 2 16 2H4ZM8 6C8 5.44772 8.44771 5 9 5L15 5C15.5523 5 16 5.44772 16 6C16 6.55229 15.5523 7 15 7L9 7C8.44771 7 8 6.55228 8 6ZM9 10C8.44771 10 8 10.4477 8 11C8 11.5523 8.44771 12 9 12L15 12C15.5523 12 16 11.5523 16 11C16 10.4477 15.5523 10 15 10L9 10ZM8 16C8 15.4477 8.44771 15 9 15L15 15C15.5523 15 16 15.4477 16 16C16 16.5523 15.5523 17 15 17H9C8.44771 17 8 16.5523 8 16ZM5 7C5.55228 7 6 6.55228 6 6C6 5.44772 5.55228 5 5 5C4.44772 5 4 5.44772 4 6C4 6.55228 4.44772 7 5 7ZM6 11C6 11.5523 5.55228 12 5 12C4.44772 12 4 11.5523 4 11C4 10.4477 4.44772 10 5 10C5.55228 10 6 10.4477 6 11ZM5 17C5.55228 17 6 16.5523 6 16C6 15.4477 5.55228 15 5 15C4.44772 15 4 15.4477 4 16C4 16.5523 4.44772 17 5 17Z" fill="#3B3E5B"/>
</svg>
