<svg width="21" height="22" viewBox="0 0 21 22" fill="none" xmlns="http://www.w3.org/2000/svg">
<path fill-rule="evenodd" clip-rule="evenodd" d="M13.3125 4.92188V1.48798C13.3125 1.19323 12.9798 1.02138 12.7394 1.192L7.59833 4.9407C7.34017 5.12894 7.1875 5.42921 7.1875 5.74871V18.6094V20.5187C7.1875 20.8061 7.51166 20.9739 7.74632 20.808L12.9017 17.0489C13.1598 16.8607 13.3125 16.5604 13.3125 16.2409V4.92188ZM15.3125 17.6758C15.3125 17.9953 15.4652 18.2956 15.7233 18.4838L18.9108 20.808C19.2149 21.0298 19.6178 21.062 19.9532 20.8914C20.2887 20.7208 20.5 20.3764 20.5 20V6.50001C20.5 6.18051 20.3473 5.88024 20.0892 5.692L15.9482 2.67252C15.6838 2.47978 15.3125 2.66858 15.3125 2.99572V17.6758ZM2.12252 1.21741L4.81002 3.35519C5.04853 3.54491 5.1875 3.83304 5.1875 4.13779V18.8817C5.1875 19.2166 4.80057 19.4033 4.53849 19.1948L0.877476 16.2826C0.638973 16.0929 0.5 15.8048 0.5 15.5V2.00001C0.5 1.61611 0.719777 1.26609 1.06556 1.09931C1.41134 0.932525 1.82208 0.978419 2.12252 1.21741Z" fill="#252849"/>
</svg>
