<svg width="33" height="32" viewBox="0 0 33 32" fill="none" xmlns="http://www.w3.org/2000/svg">
<path fill-rule="evenodd" clip-rule="evenodd" d="M16.8939 3.08085C16.6424 2.97305 16.3576 2.97305 16.1061 3.08085L2.10608 9.08085C1.7384 9.23843 1.5 9.59997 1.5 10V13.1875C1.5 13.7398 1.94772 14.1875 2.5 14.1875H3.5V15.7875C3.5 16.4863 4.01193 17.0655 4.6812 17.1705L4.31802 27H2.5C1.94772 27 1.5 27.4477 1.5 28C1.5 28.5523 1.94772 29 2.5 29H30.5C31.0523 29 31.5 28.5523 31.5 28C31.5 27.4477 31.0523 27 30.5 27H28.6821L28.3189 17.1705C28.9881 17.0654 29.5 16.4862 29.5 15.7875V14.1875H30.5C31.0523 14.1875 31.5 13.7398 31.5 13.1875V10C31.5 9.59997 31.2616 9.23843 30.8939 9.08085L16.8939 3.08085ZM27.5 14.1875H23.5V15.1875H27.5V14.1875ZM21.5 12.1875H29.5V10.6594L16.5 5.08797L3.5 10.6594V12.1875H11.5H12.5H20.5H21.5ZM21.5 14.1875V15.7875C21.5 16.4863 22.0119 17.0655 22.6812 17.1705L22.318 27H19.6821L19.3189 17.1705C19.9881 17.0654 20.5 16.4862 20.5 15.7875V14.1875H21.5ZM24.682 17.1875L24.3194 27H26.6807L26.3182 17.1875H24.682ZM5.5 14.1875H9.5V15.1875H5.5V14.1875ZM12.5 14.1875H11.5V15.7875C11.5 16.4862 10.9881 17.0654 10.3189 17.1705L10.6821 27H13.318L13.6812 17.1705C13.0119 17.0655 12.5 16.4863 12.5 15.7875V14.1875ZM6.68197 17.1875H8.31817L8.68072 27H6.31942L6.68197 17.1875ZM14.5 14.1875V15.1875H18.5V14.1875H14.5ZM17.3182 17.1875H15.682L15.3194 27H17.6807L17.3182 17.1875ZM16.1061 7.08085C16.3576 6.97305 16.6424 6.97305 16.8939 7.08085L20.3939 8.58085C20.9016 8.79841 21.1367 9.38629 20.9192 9.89392C20.7016 10.4015 20.1137 10.6367 19.6061 10.4191L16.5 9.08797L13.3939 10.4191C12.8863 10.6367 12.2984 10.4015 12.0809 9.89392C11.8633 9.38629 12.0985 8.79841 12.6061 8.58085L16.1061 7.08085Z" fill="#4CAF50"/>
</svg>
