<svg width="33" height="32" viewBox="0 0 33 32" fill="none" xmlns="http://www.w3.org/2000/svg">
<path fill-rule="evenodd" clip-rule="evenodd" d="M18.7489 2C15.711 2 13.1252 3.92654 12.1429 6.62322C8.33137 7.54304 5.5 10.9743 5.5 15.0685C5.5 19.8665 9.38953 23.756 14.1875 23.756C14.6333 23.756 15.0717 23.7224 15.5 23.6574V28H11.5C10.9477 28 10.5 28.4477 10.5 29C10.5 29.5523 10.9477 30 11.5 30H16.5H21.5C22.0523 30 22.5 29.5523 22.5 29C22.5 28.4477 22.0523 28 21.5 28H17.5V23.3431C18.2734 23.6108 19.1033 23.756 19.9655 23.756C24.1266 23.756 27.4998 20.3828 27.4998 16.2218C27.4998 14.2344 26.7294 12.426 25.4731 11.0806C25.6712 10.4306 25.7776 9.74137 25.7776 9.02871C25.7776 5.14686 22.6308 2 18.7489 2ZM17.5 21.1896C17.5419 21.2028 17.5832 21.2189 17.6234 21.2377C18.3335 21.5699 19.1264 21.756 19.9655 21.756C23.022 21.756 25.4998 19.2783 25.4998 16.2218C25.4998 14.5805 24.7866 13.1071 23.65 12.0922C23.3323 11.8085 23.2292 11.3547 23.393 10.9616C23.6405 10.3678 23.7776 9.71556 23.7776 9.02871C23.7776 6.25143 21.5262 4 18.7489 4C16.4181 4 14.4553 5.58666 13.8865 7.74043C13.786 8.12096 13.4716 8.40716 13.0833 8.47159C9.91552 8.99728 7.5 11.7518 7.5 15.0685C7.5 18.7619 10.4941 21.756 14.1875 21.756C14.6372 21.756 15.076 21.7118 15.5 21.6275V16.7882C15.4923 16.7809 15.4846 16.7735 15.4771 16.7659L13.137 14.4259C12.7465 14.0353 12.7465 13.4022 13.137 13.0116C13.5275 12.6211 14.1607 12.6211 14.5512 13.0116L15.5 13.9605V11.3125C15.5 10.7602 15.9477 10.3125 16.5 10.3125C17.0523 10.3125 17.5 10.7602 17.5 11.3125L17.5 16.9607L18.4491 16.0116C18.8396 15.6211 19.4727 15.6211 19.8633 16.0116C20.2538 16.4022 20.2538 17.0353 19.8633 17.4259L17.5232 19.7659C17.5155 19.7736 17.5078 19.7811 17.5 19.7884V21.1896Z" fill="#4CAF50"/>
</svg>
