<svg width="25" height="24" viewBox="0 0 25 24" fill="none" xmlns="http://www.w3.org/2000/svg">
<path fill-rule="evenodd" clip-rule="evenodd" d="M4.5 13C3.94772 13 3.5 12.5523 3.5 12C3.5 9.42625 4.58166 7.10351 6.31238 5.46443C7.92436 3.93781 10.1037 3 12.5 3C14.8963 3 17.0756 3.93781 18.6876 5.46443C19.0886 5.84419 19.1058 6.47712 18.7261 6.87812C18.3463 7.27912 17.7134 7.29633 17.3124 6.91657C16.057 5.72769 14.3646 5 12.5 5C10.6354 5 8.94297 5.72769 7.68762 6.91657C6.33911 8.19367 5.5 9.99803 5.5 12C5.5 12.5523 5.05228 13 4.5 13ZM6.27393 17.1219C6.65369 16.7209 7.28663 16.7037 7.68762 17.0834C8.94297 18.2723 10.6354 19 12.5 19C16.366 19 19.5 15.866 19.5 12C19.5 11.4477 19.9477 11 20.5 11C21.0523 11 21.5 11.4477 21.5 12C21.5 16.9706 17.4706 21 12.5 21C10.1037 21 7.92436 20.0622 6.31238 18.5356C5.91138 18.1558 5.89417 17.5229 6.27393 17.1219Z" fill="#252849"/>
<path fill-rule="evenodd" clip-rule="evenodd" d="M1.79289 9.87868C2.18342 9.48816 2.81658 9.48816 3.20711 9.87868L4.5 11.1716L5.79289 9.87868C6.18342 9.48816 6.81658 9.48816 7.20711 9.87868C7.59763 10.2692 7.59763 10.9024 7.20711 11.2929L4.5 14L1.79289 11.2929C1.40237 10.9024 1.40237 10.2692 1.79289 9.87868Z" fill="#252849"/>
<path fill-rule="evenodd" clip-rule="evenodd" d="M23.2071 13.7073C22.8166 14.0978 22.1834 14.0978 21.7929 13.7073L20.5 12.4144L19.2071 13.7073C18.8166 14.0978 18.1834 14.0978 17.7929 13.7073C17.4024 13.3167 17.4024 12.6836 17.7929 12.293L20.5 9.58594L23.2071 12.293C23.5976 12.6836 23.5976 13.3167 23.2071 13.7073Z" fill="#252849"/>
</svg>
