<svg width="33" height="32" viewBox="0 0 33 32" fill="none" xmlns="http://www.w3.org/2000/svg">
<path fill-rule="evenodd" clip-rule="evenodd" d="M15.5 5C15.5 5.55228 15.9477 6 16.5 6C17.0523 6 17.5 5.55228 17.5 5V2C17.5 1.44772 17.0523 1 16.5 1C15.9477 1 15.5 1.44772 15.5 2V5ZM6.5 20.7914C6.5 15.2685 10.9772 10.7914 16.5 10.7914C22.0228 10.7914 26.5 15.2685 26.5 20.7914C26.5 21.5512 26.4154 22.2902 26.2555 23H6.7445C6.58456 22.2902 6.5 21.5512 6.5 20.7914ZM4.52854 21.625H3.5C2.94772 21.625 2.5 21.1773 2.5 20.625C2.5 20.0727 2.94772 19.625 3.5 19.625H4.55596C5.14242 13.5449 10.2661 8.79138 16.5 8.79138C22.7339 8.79138 27.8576 13.5449 28.444 19.625H29.5C30.0523 19.625 30.5 20.0727 30.5 20.625C30.5 21.1773 30.0523 21.625 29.5 21.625H28.4715C28.4082 22.5454 28.2411 23.4382 27.9813 24.2913L27.7655 25H5.23448L5.01869 24.2913C4.75893 23.4382 4.59177 22.5454 4.52854 21.625ZM4.5 27C3.94772 27 3.5 27.4477 3.5 28C3.5 28.5523 3.94772 29 4.5 29H28.5C29.0523 29 29.5 28.5523 29.5 28C29.5 27.4477 29.0523 27 28.5 27H4.5ZM15.5 13.7914C15.5 13.2391 15.9477 12.7914 16.5 12.7914C19.5294 12.7914 22.164 14.4756 23.5211 16.954C23.7863 17.4384 23.6087 18.0461 23.1242 18.3114C22.6398 18.5766 22.0321 18.399 21.7668 17.9146C20.7466 16.0513 18.7697 14.7914 16.5 14.7914C15.9477 14.7914 15.5 14.3437 15.5 13.7914ZM12.5 6C11.9477 6 11.5 5.55228 11.5 5V4C11.5 3.44772 11.9477 3 12.5 3C13.0523 3 13.5 3.44772 13.5 4V5C13.5 5.55228 13.0523 6 12.5 6ZM19.5 5C19.5 5.55228 19.9477 6 20.5 6C21.0523 6 21.5 5.55228 21.5 5V4C21.5 3.44772 21.0523 3 20.5 3C19.9477 3 19.5 3.44772 19.5 4V5Z" fill="#4CAF50"/>
</svg>
