<svg width="20" height="18" viewBox="0 0 20 18" fill="none" xmlns="http://www.w3.org/2000/svg">
<path fill-rule="evenodd" clip-rule="evenodd" d="M2 9C2 5.13401 5.13401 2 9 2C12.866 2 16 5.13401 16 9C16 10.5418 15.5027 11.9646 14.6595 13.1205C14.6008 13.2009 14.5558 13.2872 14.5242 13.3765C14.4996 13.3984 14.4758 13.4217 14.453 13.4464C14.0782 13.852 14.1032 14.4847 14.5089 14.8595L17.3839 17.5158C17.7895 17.8905 18.4222 17.8655 18.797 17.4599C19.1718 17.0542 19.1468 16.4215 18.7411 16.0468L16.5001 13.9763C17.4477 12.5507 18 10.8386 18 9C18 4.02944 13.9706 0 9 0C4.02944 0 0 4.02944 0 9C0 13.9706 4.02944 18 9 18C10.435 18 11.7943 17.6634 13.0006 17.0639C13.4952 16.8182 13.6969 16.218 13.4511 15.7234C13.2053 15.2288 12.6051 15.0271 12.1105 15.2729C11.1746 15.738 10.1193 16 9 16C5.13401 16 2 12.866 2 9Z" fill="#7C7E92" fill-opacity="0.56"/>
</svg>