<svg width="22" height="22" viewBox="0 0 22 22" fill="none" xmlns="http://www.w3.org/2000/svg">
<path fill-rule="evenodd" clip-rule="evenodd" d="M8.65845 0.614288C8.9272 0.231095 9.38589 0 9.87786 0H12.0615C12.5535 0 13.0122 0.231095 13.2809 0.614288L14.6699 2.59487L16.9924 3.84185L19.5314 3.9702C20.0226 3.99505 20.4671 4.24889 20.7131 4.64514L21.8049 6.40372C22.0509 6.79997 22.0651 7.28491 21.8426 7.69295L20.6927 9.80189V12.1982L21.8426 14.3071C22.0651 14.7151 22.0509 15.2001 21.8049 15.5963L20.7131 17.3549C20.4671 17.7512 20.0226 18.005 19.5314 18.0299L16.9924 18.1582L14.7306 19.4051L13.3416 21.3857C13.0728 21.7689 12.6141 22 12.1222 22H9.93849C9.44652 22 8.98783 21.7689 8.71908 21.3857L7.33009 19.4051L5.00758 18.1582L2.46865 18.0298C1.97739 18.005 1.53287 17.7511 1.28687 17.3549L0.195054 15.5963C-0.050946 15.2 -0.0651039 14.7151 0.157393 14.3071L1.30735 12.1981V9.80189L0.157393 7.69295C-0.0651039 7.28491 -0.050946 6.79997 0.195054 6.40372L1.28687 4.64514C1.53287 4.24889 1.97739 3.99505 2.46865 3.9702L5.00758 3.84185L7.26946 2.59487L8.65845 0.614288ZM12.7321 8.00039C11.6603 7.38159 10.3397 7.38159 9.26795 8.00039C8.19615 8.61919 7.5359 9.76279 7.5359 11.0004C7.5359 12.238 8.19615 13.3816 9.26795 14.0004C10.3397 14.6192 11.6603 14.6192 12.7321 14.0004C13.8038 13.3816 14.4641 12.238 14.4641 11.0004C14.4641 9.76279 13.8038 8.61919 12.7321 8.00039Z" fill="#252849"/>
</svg>
