
<svg width="24" height="24" viewBox="0 0 24 24" fill="none" xmlns="http://www.w3.org/2000/svg">
<path d="M10.98 1.99971C10.5328 1.99971 10.1158 2.2098 9.87144 2.55815L8.60872 4.35868L6.55247 5.4923L4.24435 5.60898C3.79775 5.63157 3.39364 5.86234 3.17 6.22257L2.17744 7.82127C1.95381 8.1815 1.94094 8.62236 2.14321 8.9933L3.18862 10.9105V13.0889L2.14321 15.0061C1.94094 15.3771 1.95381 15.8179 2.17744 16.1781L3.17 17.7769C3.39364 18.1371 3.79775 18.3678 4.24435 18.3904L6.55247 18.5071L8.66384 19.6407L9.92656 21.4413C10.1709 21.7896 10.5879 21.9997 11.0351 21.9997H13.0203C13.4675 21.9997 13.8845 21.7896 14.1288 21.4413L15.3915 19.6407L17.4478 18.5072L19.7559 18.3905C20.2025 18.3679 20.6066 18.1371 20.8302 17.7769L21.8228 16.1782C22.0464 15.818 22.0593 15.3771 21.857 15.0062L20.8116 13.089V10.9105L21.857 8.9933C22.0593 8.62236 22.0464 8.1815 21.8228 7.82127L20.8302 6.22257C20.6066 5.86234 20.2025 5.63157 19.7559 5.60898L17.4478 5.4923L15.3364 4.35868L14.0737 2.55815C13.8294 2.2098 13.4124 1.99971 12.9651 1.99971H10.98Z" stroke="#3B3E5B" stroke-width="2"/>
<path d="M10.7681 9.86572C11.5305 9.42555 12.4698 9.42555 13.2322 9.86572C13.9946 10.3059 14.4642 11.1194 14.4642 11.9997C14.4642 12.88 13.9946 13.6935 13.2322 14.1337C12.4698 14.5738 11.5305 14.5738 10.7681 14.1337C10.0057 13.6935 9.53602 12.88 9.53602 11.9997C9.53602 11.1194 10.0057 10.3059 10.7681 9.86572Z" stroke="#3B3E5B" stroke-width="2"/>
</svg>
